<?xml version="1.0" encoding="utf-8"?>
<!-- Generator: Adobe Illustrator 25.4.1, SVG Export Plug-In . SVG Version: 6.00 Build 0)  -->
<svg version="1.1" xmlns="http://www.w3.org/2000/svg" xmlns:xlink="http://www.w3.org/1999/xlink" x="0px" y="0px"
	 viewBox="0 0 1000 1000" style="enable-background:new 0 0 1000 1000;" xml:space="preserve">
<style type="text/css">
	.st0{display:none;}
	.st1{fill:#E6E6E6;}
	.st2{fill:#78C8D0;}
	.st3{fill:#B3B3B3;}
	.st4{fill:#999999;}
	.st5{fill:#FDD8C2;}
	.st6{fill:#84422C;}
	.st7{fill:none;stroke:#F2F2F2;stroke-linecap:round;stroke-miterlimit:10;}
	.st8{fill:none;stroke:#F2F2F2;stroke-width:5;stroke-linecap:round;stroke-linejoin:round;stroke-miterlimit:10;}
	.st9{fill:none;stroke:#F2F2F2;stroke-width:8;stroke-linecap:round;stroke-linejoin:round;stroke-miterlimit:10;}
	.st10{opacity:0.5;}
	.st11{fill:#F2F2F2;}
	.st12{opacity:0.5;fill:none;stroke:#FFFFFF;stroke-width:3;stroke-linecap:round;stroke-miterlimit:10;}
	.st13{opacity:0.5;fill:none;stroke:#000000;stroke-width:7;stroke-linecap:round;stroke-miterlimit:10;}
	.st14{opacity:0.5;fill:none;stroke:#000000;stroke-width:5;stroke-linecap:round;stroke-miterlimit:10;}
	.st15{fill:none;stroke:#000000;stroke-width:3;stroke-linecap:round;stroke-miterlimit:10;}
	.st16{opacity:0.5;fill:none;stroke:#000000;stroke-width:3;stroke-linecap:round;stroke-miterlimit:10;}
	.st17{fill:none;stroke:#000000;stroke-width:8.9506;stroke-linecap:round;stroke-linejoin:round;stroke-miterlimit:10;}
	.st18{fill:none;stroke:#000000;stroke-width:5;stroke-linecap:round;stroke-linejoin:round;stroke-miterlimit:10;}
	.st19{fill:none;stroke:#000000;stroke-width:7;stroke-linecap:round;stroke-linejoin:round;stroke-miterlimit:10;}
	.st20{fill:none;stroke:#000000;stroke-width:2.5;stroke-linecap:round;stroke-linejoin:round;stroke-miterlimit:10;}
	.st21{fill:none;stroke:#000000;stroke-width:3;stroke-linecap:round;stroke-linejoin:round;stroke-miterlimit:10;}
	.st22{fill:#FFFFFF;stroke:#000000;stroke-width:1.1013;stroke-linecap:round;stroke-linejoin:round;stroke-miterlimit:10;}
	.st23{fill:#CCCCCC;stroke:#000000;stroke-miterlimit:10;}
	.st24{stroke:#000000;stroke-miterlimit:10;}
	.st25{fill:#4D4D4D;stroke:#000000;stroke-miterlimit:10;}
	.st26{fill:none;stroke:#000000;stroke-width:10;stroke-linecap:round;stroke-linejoin:round;stroke-miterlimit:10;}
	.st27{fill:none;stroke:#000000;stroke-linecap:round;stroke-linejoin:round;stroke-miterlimit:10;}
	.st28{fill:#FFFFFF;stroke:#000000;stroke-miterlimit:10;}
	.st29{fill:#FFFFFF;stroke:#000000;stroke-width:2;stroke-miterlimit:10;}
	.st30{fill:none;stroke:#000000;stroke-miterlimit:10;}
	.st31{fill:#FCDAC5;stroke:#000000;stroke-width:7;stroke-miterlimit:10;}
	
		.st32{display:inline;fill:#FFFFFF;stroke:#000000;stroke-width:5;stroke-linecap:round;stroke-linejoin:round;stroke-miterlimit:10;}
	.st33{display:inline;fill:none;stroke:#000000;stroke-width:5;stroke-linecap:round;stroke-linejoin:round;stroke-miterlimit:10;}
	.st34{display:inline;}
	.st35{fill:none;stroke:#000000;stroke-width:10;stroke-miterlimit:10;}
	.st36{fill:#FFFFFF;}
	.st37{display:inline;fill:none;stroke:#000000;stroke-width:10;stroke-miterlimit:10;}
	.st38{display:inline;fill:#FFFFFF;}
	
		.st39{display:inline;fill:#FFFFFF;stroke:#000000;stroke-width:7;stroke-linecap:round;stroke-linejoin:round;stroke-miterlimit:10;}
	.st40{display:inline;fill:none;stroke:#000000;stroke-width:10;stroke-linecap:round;stroke-linejoin:round;stroke-miterlimit:10;}
</style>
<g id="Layer_1" class="st0">
</g>
<g id="Layer_13">
	<ellipse cx="499.67" cy="666.16" rx="66.8" ry="2.71"/>
</g>
<g id="Layer_1_copy" class="st0">
</g>
<g id="Layer_3" class="st0">
</g>
<g id="Layer_12">
</g>
<g id="color">
	<polygon class="st1" points="449.87,645 478.06,645 491.8,580.67 470.83,580.07 451.9,627.53 	"/>
	<polygon class="st1" points="548.93,645 520.73,645 507,580.67 527.96,580.07 546.9,627.53 	"/>
	<polygon class="st2" points="492.6,580.07 507,580.67 518.92,645.93 479.25,645.93 	"/>
	<polygon class="st2" points="484.2,649.15 465.66,663.45 458.95,660.92 458.95,653.12 458.95,647 	"/>
	<polygon class="st2" points="517.65,647 537,645.86 540.3,656.77 537.35,663.11 529.77,661.23 517.65,648.2 	"/>
	<path class="st3" d="M484.2,605.12c-0.66-0.25-6.73-10.38-6.73-10.38l3.94-3.87l-2.15-7.47l2.7-3.33l8.12,4L484.2,605.12z"/>
	<path class="st4" d="M514.6,605.12c0.66-0.25,6.73-10.38,6.73-10.38l-3.94-3.87l2.15-7.47l-2.7-3.33l-8.12,4L514.6,605.12z"/>
	<path class="st3" d="M460.8,625.08l-1.85,5.02c0,0,3.85,2.7,4.45,2.7s8.17-0.73,8.17-0.73l1.78-3.6l0.95-3.96l1-2.28
		c0,0,0.1-1.41,0-1.93c-0.1-0.51-4.34-0.81-4.47-0.91s-5.13,0-5.13,0l-3.23,0.22l-1.23,1.07L460.8,625.08z"/>
	<path class="st3" d="M525.45,628.47l1.19,3.6c0,0,6.46,0.07,6.76,0c0.3-0.07,4.93-0.16,4.93-0.16s0.85-2.11,0.81-2.41
		s-0.81-2.5-0.81-2.5s-0.07-0.04,0-0.92c0.07-0.88,0.37-3.39,0.37-3.39s-1.32-2.93-2.36-3.06c-1.04-0.13-4.29-0.31-5.67-0.27
		c-1.37,0.04-3.57,0.27-3.57,0.27l-2.6,3.57L525.45,628.47z"/>
	<path class="st1" d="M450.73,618.92L437,610.57c0,0,9.11-16.17,9.42-16.66c0.32-0.49,8.8-12.57,8.8-12.57l6.68-3.93l5.08,9.69
		l-7.32,21.8L450.73,618.92z"/>
	<polygon class="st3" points="439.8,612.33 452.6,620.31 454.4,610.52 442.3,604.2 	"/>
	<path class="st5" d="M439.8,574.6l94.76,6.07c0,0,27.86-6,29.55-7.1c1.69-1.1,36.63-44.26,36.63-44.26v-19.79l-2.13-13.85l-10-22.4
		l-7.28-11.14l-8.85-6.62l-18.42,4.97l-7.24,5.93c0,0-37.76,1.21-42.58,0.74c-4.82-0.47-33.39-3.63-33.39-3.63l-23.73-4.96
		l-22.4,0.49L417,472.2l-8.21,16.47l-8.32,4.18H397v15.52l11.91,39L439.8,574.6z"/>
	<path class="st6" d="M413.72,477.8l10.98-16.79l42.28,3.67l45.15,5.02l24.47-0.29l33.95-11.41l10.77,6.1
		c0,0,10.63,12.76,10.87,13.33c0.24,0.57,6.4,20.21,6.4,20.21l12.4,4.33c0,0,7.01-11.31,5.2-14.2s-3.52-22.75-3.52-22.75L601.75,442
		l-19.27-13.44l-18.37-24.07l-29.16-14.04l-58.4-6.01l-38.78,12.58l-28.04,23.96l-13.74,28.16l-4.72,35.44l13.13,9.79L413.72,477.8z
		"/>
	<polyline class="st5" points="447.1,616.88 451.37,622.69 442.3,629.4 437,625.73 434.93,618.32 439.13,613 447.1,616.88 	"/>
	<path class="st7" d="M503.88,582.7"/>
	<polygon class="st1" points="544.17,581.4 556.98,592.59 553.97,599.76 550.58,605.79 545.25,603.5 537.8,591.6 532.85,584.41 
		532.85,580.07 	"/>
</g>
<g id="light_shadow">
	<line class="st8" x1="451.37" y1="641.2" x2="471.57" y2="582.7"/>
	<line class="st8" x1="515.64" y1="605.79" x2="523.67" y2="641.8"/>
	<path class="st9" d="M474.5,602.17"/>
	<g class="st10">
		<path class="st11" d="M574.99,437.12c-1.15-10.22-6.51-18.58-13.42-24.75c-3.59-3.02-7.63-5.48-11.88-7.64
			c-2.13-1.07-4.31-2.1-6.55-3.03c-2.24-0.93-4.54-1.78-6.87-2.58c-18.76-6.28-39.1-8.19-58.76-5.9c-9.83,1.21-19.52,3.4-28.72,6.88
			c-4.64,1.68-9.06,3.79-13.27,6.21c-4.19,2.46-8.15,5.31-11.72,8.58c-3.59,3.25-6.78,6.92-9.5,10.94
			c-1.35,2.03-2.54,4.11-3.73,6.41c-1.23,2.24-2.33,4.52-3.47,6.79c-2.23,4.57-4.27,9.23-6.07,14c-1.76,4.78-3.4,9.65-4.3,14.74
			c-0.22-5.2,0.61-10.4,1.65-15.51c1.06-5.12,2.53-10.15,4.27-15.08c0.88-2.46,1.79-4.92,2.8-7.32c0.97-2.38,2.03-4.93,3.3-7.33
			c1.32-2.38,2.72-4.74,4.37-6.92c0.78-1.12,1.67-2.16,2.52-3.23c0.91-1.02,1.79-2.06,2.76-3.03c3.77-3.96,8.07-7.35,12.59-10.36
			c2.28-1.47,4.61-2.87,7.03-4.1c2.4-1.25,4.82-2.41,7.3-3.47c9.91-4.2,20.41-6.85,31.01-8.14c10.6-1.33,21.32-1.37,31.92-0.33
			c10.6,1.06,21.1,3.2,31.26,6.58c2.55,0.83,5.08,1.77,7.59,2.83c2.51,1.05,4.99,2.23,7.38,3.61c4.79,2.74,9.27,6.25,12.99,10.49
			c3.84,4.18,6.76,9.15,8.41,14.5c1.65,5.32,1.95,11.15,0.27,16.29c-0.1,0.3-0.43,0.47-0.73,0.37
			C575.16,437.54,575.01,437.34,574.99,437.12z"/>
	</g>
	<g class="st10">
		<path class="st11" d="M589.25,427.19c0.29,0.23,0.47,0.38,0.67,0.56c0.21,0.17,0.39,0.34,0.57,0.51c0.37,0.34,0.73,0.68,1.07,1.03
			c0.7,0.68,1.34,1.39,2,2.09c1.26,1.44,2.45,2.92,3.57,4.44c2.23,3.05,4.13,6.3,5.73,9.65c1.55,3.38,2.89,6.84,3.75,10.4
			c0.2,0.89,0.47,1.76,0.62,2.66l0.47,2.68c0.17,0.89,0.22,1.8,0.3,2.69c0.08,0.9,0.15,1.79,0.21,2.68
			c-1.41-3.31-2.79-6.53-4.59-9.52c-0.84-1.51-1.8-2.95-2.73-4.39c-0.47-0.71-1.01-1.39-1.51-2.08l-0.76-1.02l-0.82-0.98
			c-2.08-2.67-4.42-5.1-6.86-7.35c-1.21-1.13-2.47-2.2-3.75-3.22c-0.64-0.5-1.27-1.01-1.92-1.47c-0.32-0.24-0.64-0.46-0.96-0.68
			c-0.16-0.11-0.32-0.22-0.46-0.32c-0.15-0.1-0.32-0.21-0.39-0.24c-2.52-1.19-3.6-4.21-2.41-6.73s4.21-3.6,6.73-2.41
			c0.34,0.16,0.65,0.35,0.93,0.57L589.25,427.19z"/>
	</g>
	<polyline class="st12" points="461.15,630.6 462.5,626.08 461.83,624.2 462.99,619.54 	"/>
	<line class="st12" x1="527.65" y1="630.8" x2="526.85" y2="627.95"/>
</g>
<g id="dark_shadow">
	<g class="st10">
		<path d="M415.23,460.91c1.9-3.24,4.97-5.79,8.34-7.61c3.39-1.84,7.1-2.98,10.82-3.64c3.74-0.68,7.51-0.81,11.24-0.76
			c3.74,0.05,7.46,0.36,11.15,0.93c3.8,0.59,7.1,1.33,10.6,1.96l10.39,1.98c6.93,1.32,13.89,2.48,20.87,3.5
			c13.87,2.14,27.8,2.59,41.59,1.25c1.72-0.17,3.44-0.37,5.16-0.59c1.72-0.2,3.36-0.51,5.03-0.86c3.32-0.69,6.6-1.62,9.7-2.88
			c3.1-1.25,6.07-2.72,8.65-4.7c2.6-1.96,4.69-4.58,5.84-8.09c0.36,1.81,0.18,3.75-0.37,5.61c-0.58,1.86-1.56,3.61-2.79,5.13
			c-2.46,3.07-5.69,5.33-9.04,7.04c-3.38,1.7-6.88,3.01-10.46,4.04c-1.78,0.51-3.63,0.94-5.42,1.31c-1.79,0.4-3.59,0.71-5.4,1
			c-14.48,2.31-29.24,1.55-43.55-0.13c-7.13-0.82-14.24-1.78-21.34-2.89c-3.55-0.55-7.08-1.21-10.6-1.91l-5.27-1.12
			c-1.8-0.41-3.39-0.8-5.06-1.11c-1.66-0.32-3.33-0.59-5.01-0.81c-1.68-0.24-3.36-0.43-5.05-0.56c-3.37-0.27-6.74-0.29-10.08-0.18
			c-3.34,0.12-6.66,0.38-9.96,0.99C421.9,458.44,418.62,459.37,415.23,460.91z"/>
	</g>
	<line class="st13" x1="475.34" y1="641.2" x2="481.15" y2="613.93"/>
	<line class="st14" x1="527.1" y1="582.7" x2="547.43" y2="642.47"/>
	<path class="st15" d="M401.4,641.2"/>
	<polyline class="st16" points="471.2,630.6 472.34,626.08 474.3,623.79 475.3,619.63 	"/>
	<polyline class="st16" points="537.8,630.8 536.2,625.73 537,623.79 535.75,620.05 	"/>
</g>
<g id="out_line">
	<path class="st17" d="M545.89,645.93H452.9c-3.69,0-6.29-3.62-5.12-7.11l20.17-60.09h62.9l1.62,4.82l1.2,3.58l1.59,4.74l9.83,29.29
		l5.92,17.66C552.19,642.31,549.58,645.93,545.89,645.93z"/>
	<path class="st18" d="M522.87,645"/>
	<path class="st18" d="M490.86,578.13"/>
	<path class="st19" d="M514.6,578.73"/>
	<path class="st19" d="M496.2,645.93"/>
	<path class="st17" d="M502.6,645.93"/>
	<path class="st19" d="M484.2,578.73"/>
	<path class="st20" d="M506.59,635.1"/>
	<path class="st19" d="M474.86,645.93"/>
	<line class="st19" x1="520.93" y1="645.93" x2="507" y2="580.67"/>
	<polyline class="st19" points="453.67,645.86 477.86,645.93 491.8,580.67 	"/>
	<polyline class="st18" points="513.97,608.33 521.33,596 517.14,590.93 520.93,582.92 515.8,578.67 	"/>
	<polyline class="st18" points="484.83,608.33 477.46,596 481.66,590.93 477.86,582.92 483,578.67 	"/>
	<path class="st21" d="M474.3,624.88l-1.6,6.08c-0.16,0.66-0.75,1.12-1.43,1.12h-10.13c-0.99,0-1.7-0.96-1.41-1.91l1.58-5.07
		L474.3,624.88z"/>
	<path class="st21" d="M474.37,619.4c1.28-0.02,2.23,1.2,1.9,2.44l-0.39,1.47c-0.24,0.92-1.07,1.56-2.02,1.58l-11.91,0.19
		c-0.97,0.02-1.68-0.9-1.43-1.84l0.62-2.27c0.23-0.83,0.98-1.42,1.85-1.43L474.37,619.4z"/>
	<path class="st21" d="M524.5,624.88l1.6,6.08c0.16,0.66,0.75,1.12,1.43,1.12h10.13c0.99,0,1.7-0.96,1.41-1.91l-1.58-5.07
		L524.5,624.88z"/>
	<path class="st21" d="M524.42,619.4c-1.28-0.02-2.23,1.2-1.9,2.44l0.39,1.47c0.24,0.92,1.07,1.56,2.02,1.58l11.91,0.19
		c0.97,0.02,1.68-0.9,1.43-1.84l-0.62-2.27c-0.23-0.83-0.98-1.42-1.85-1.43L524.42,619.4z"/>
	<path class="st22" d="M486.91,610.57"/>
	<g>
		<path class="st23" d="M479.25,600.91c-0.43,0-0.85,0.05-1.25,0.12c-0.71,0.13-1.38,0.36-1.99,0.69c-0.64,0.35-1.22,0.78-1.72,1.3
			c-1.21,1.24-1.95,2.94-1.95,4.8c0,3.8,3.11,6.9,6.91,6.9c3.81,0,6.9-3.1,6.9-6.9C486.15,604.01,483.06,600.91,479.25,600.91z
			 M479.25,610.52c-1.49,0-2.7-1.21-2.7-2.7c0-1.49,1.21-2.7,2.7-2.7s2.7,1.21,2.7,2.7C481.95,609.31,480.74,610.52,479.25,610.52z"
			/>
		<path class="st24" d="M481.95,607.82c0,1.49-1.21,2.7-2.7,2.7s-2.7-1.21-2.7-2.7c0-1.49,1.21-2.7,2.7-2.7
			S481.95,606.33,481.95,607.82z"/>
		<path class="st25" d="M530.49,619.63c-0.72-1.28-1.87-2.24-3.21-2.74c1.65-2.49,1.87-5.79,0.29-8.56
			c-0.87-1.52-2.17-2.7-3.73-3.41c-0.39-0.17-0.79-0.32-1.2-0.43c-0.45-0.13-0.92-0.21-1.38-0.25c-1.66-0.16-3.34,0.19-4.83,1.03
			c-1.9,1.08-3.26,2.83-3.84,4.93c-0.18,0.64-0.27,1.29-0.29,1.93c-0.06-0.01-0.13-0.01-0.18-0.01c-1.07,0-2.13,0.28-3.06,0.82
			c-0.33,0.18-0.63,0.4-0.91,0.63c-0.14-1.49-0.02-3,0.39-4.48c0.87-3.19,2.94-5.84,5.82-7.48c2.34-1.33,4.98-1.86,7.62-1.53
			c0.71-1.88,1.07-3.89,1.07-5.92c0-4.09-1.5-8.11-4.23-11.16c-3.05-3.4-7.02-4.89-11.52-5.15c-1.34-0.08-2.69-0.08-4.03-0.07
			c-5.53,0.03-5.33,0.2-10.85,0.09c-3.72-0.07-7.33,1.26-10.16,3.69c-3.64,3.13-5.7,7.81-5.7,12.59c0,2.37,0.5,4.73,1.45,6.87
			c-0.71,0.13-1.38,0.36-1.99,0.69c-0.64,0.34-1.22,0.78-1.72,1.3c-1.27-2.75-1.94-5.79-1.94-8.86c0-7.93,4.61-15.5,11.88-18.8
			c4.25-1.93,9.11-1.82,13.69-1.78c5.46,0.04,5.2-0.07,10.65,0.11c3.67,0.12,7.33,1.56,10.27,3.71c5.29,3.88,8.4,10.22,8.4,16.76
			c0,2.44-0.42,4.86-1.24,7.14c2.18,1.08,3.98,2.79,5.22,4.95C533.7,610.59,533.25,615.82,530.49,619.63z"/>
		<path class="st23" d="M517.51,615.25c-1.07-1.87-3.04-3.06-5.2-3.12c-0.06-0.01-0.13-0.01-0.18-0.01c-1.07,0-2.13,0.28-3.06,0.82
			c-0.33,0.18-0.63,0.4-0.91,0.63c-2.25,1.87-2.92,5.17-1.41,7.81c1.1,1.93,3.17,3.14,5.39,3.14c1.07,0,2.13-0.29,3.06-0.82
			c1.44-0.82,2.47-2.14,2.91-3.74C518.54,618.36,518.33,616.69,517.51,615.25z M513.12,620.05c-0.31,0.18-0.65,0.26-0.98,0.26
			c-0.69,0-1.36-0.36-1.73-1.01c-0.03-0.05-0.05-0.1-0.08-0.15c-0.44-0.93-0.08-2.04,0.82-2.56c0.31-0.18,0.65-0.26,0.98-0.26
			c0.56,0,1.11,0.24,1.48,0.66c0.1,0.1,0.18,0.22,0.25,0.34C514.4,618.29,514.07,619.51,513.12,620.05z"/>
		<path class="st24" d="M513.12,620.05c-0.31,0.18-0.65,0.26-0.98,0.26c-0.69,0-1.36-0.36-1.73-1.01c-0.03-0.05-0.05-0.1-0.08-0.15
			c-0.44-0.93-0.08-2.04,0.82-2.56c0.31-0.18,0.65-0.26,0.98-0.26c0.56,0,1.11,0.24,1.48,0.66c0.1,0.1,0.18,0.22,0.25,0.34
			C514.4,618.29,514.07,619.51,513.12,620.05z"/>
		<path class="st23" d="M530.49,619.63c-0.72-1.28-1.87-2.24-3.21-2.74c-0.68-0.25-1.42-0.4-2.17-0.4c-1.08,0-2.14,0.29-3.06,0.82
			c-1.44,0.82-2.47,2.14-2.91,3.74c-0.45,1.6-0.24,3.26,0.59,4.7c1.09,1.93,3.16,3.14,5.38,3.14c1.08,0,2.14-0.29,3.06-0.82
			c1.44-0.82,2.47-2.14,2.91-3.74C531.53,622.73,531.32,621.06,530.49,619.63z M526.1,624.42c-0.31,0.18-0.65,0.26-0.98,0.26
			c-0.69,0-1.36-0.36-1.73-1.01c-0.39-0.69-0.33-1.5,0.09-2.11c0.17-0.24,0.39-0.45,0.66-0.61c0.31-0.18,0.65-0.26,0.98-0.26
			c0.69,0,1.36,0.36,1.73,1.01c0.2,0.35,0.28,0.74,0.25,1.12C527.05,623.46,526.7,624.07,526.1,624.42z"/>
		<path class="st24" d="M527.1,622.82c-0.04,0.64-0.4,1.25-1,1.6c-0.31,0.18-0.65,0.26-0.98,0.26c-0.69,0-1.36-0.36-1.73-1.01
			c-0.39-0.69-0.33-1.5,0.09-2.11c0.17-0.24,0.39-0.45,0.66-0.61c0.31-0.18,0.65-0.26,0.98-0.26c0.69,0,1.36,0.36,1.73,1.01
			C527.05,622.05,527.12,622.44,527.1,622.82z"/>
	</g>
	<path class="st26" d="M545.47,586.13"/>
	<path class="st19" d="M562.43,595.41l-11.49,13.95l-0.58-0.66l-6.78-7.54l-8.32-9.29l-1.59-4.74l-1.2-3.58
		c2.16-2.32,5.02-5.38,5.03-5.39c0.47-0.51,10.95,6.62,11.58,7.04c1.82,1.24,3.69,2.56,5.48,3.89
		C557.64,591.36,562.43,595.41,562.43,595.41z"/>
	<path class="st26" d="M545.47,586.13"/>
	<path class="st18" d="M565.23,597.89"/>
	<path class="st19" d="M440.06,629.85c5.94,1.47,11-3.94,13.87-8.87l14.12-38.09c0,0-9.38-5.47-9.39-5.47
		c-0.6-0.35-7.77,9.88-8.19,10.49c-5.47,7.8-10.43,15.89-13.86,24.81c-1.1,2.87-2.07,5.88-1.9,8.94
		C434.92,625.36,436.56,628.99,440.06,629.85z"/>
	<line class="st18" x1="451.9" y1="619.63" x2="437.6" y2="611"/>
	<line class="st18" x1="456.6" y1="612.13" x2="442.3" y2="603.5"/>
	<path class="st19" d="M538.93,645.93c0.14,0.02,1.26,9.95,1.37,10.84c0.13,0.99,0.25,2.01,0.02,2.98
		c-0.25,1.06-0.93,1.99-1.79,2.66c-1.66,1.3-4.04,1.6-5.97,0.76c-1.04-0.45-1.93-1.2-2.8-1.93c-2.85-2.41-5.7-4.82-8.55-7.22
		c-1.39-1.18-2.79-2.35-4.18-3.53c-1.34-1.13-3.16-2.25-4.2-3.63c2.64-0.64,5.99-0.25,8.72-0.34c4.2-0.14,8.39-0.28,12.59-0.42
		C535.74,646.04,537.34,645.98,538.93,645.93z"/>
	<path class="st19" d="M459.86,645.97c-0.47,3.6-0.91,7.23-1.37,10.85c-0.13,1-0.25,2.04,0,3.02c0.45,1.73,2.02,2.99,3.73,3.53
		c1.12,0.35,2.34,0.45,3.45,0.09c1.05-0.33,1.94-1.04,2.8-1.73c6.22-4.99,12.45-9.96,18.68-14.92c-6.28-0.2-12.57-0.4-18.85-0.6
		C465.58,646.11,462.57,645.66,459.86,645.97z"/>
	<g>
		<line class="st27" x1="582.36" y1="570.6" x2="602.41" y2="546.49"/>
		<path class="st28" d="M583.15,571.79l-7.05,8.37c-0.23,0.28-0.54,0.44-0.87,0.48c-0.37,0.06-0.78-0.03-1.09-0.31
			c-0.6-0.49-0.67-1.38-0.17-1.97l7.04-8.37c0.35-0.41,0.87-0.57,1.35-0.46c0.23,0.04,0.44,0.14,0.62,0.29
			c0.01,0.01,0.01,0.01,0.02,0.02c0.18,0.15,0.3,0.33,0.38,0.53C583.56,570.84,583.49,571.38,583.15,571.79z"/>
		<path class="st29" d="M537.04,633.47c-0.28-0.03-0.55-0.15-0.78-0.34l-8.44-7.1c-0.63-0.53-0.71-1.48-0.18-2.11
			s1.48-0.71,2.11-0.18l3.34,2.81l11.61-13.8c0.53-0.63,1.48-0.71,2.11-0.18s0.71,1.48,0.18,2.11l-11.61,13.8l2.8,2.36
			c0.63,0.53,0.71,1.48,0.18,2.11C538.03,633.35,537.53,633.53,537.04,633.47z"/>
		<path class="st29" d="M549.55,616.86l-2.55-2.17l-2.27-1.95l-2.79-2.37l6.39-7.5l3.25-3.81l10.6-12.44l4.71-5.53l5.15-6.05
			c1.79-2.1,4.94-2.36,7.04-0.56l0.01,0c2.09,1.78,2.35,4.92,0.57,7.03c0,0,0,0-0.01,0.01L549.55,616.86z"/>
		<line class="st30" x1="566.88" y1="581.08" x2="569.85" y2="583.58"/>
		<line class="st30" x1="562.43" y1="586.36" x2="565.41" y2="588.86"/>
		<line class="st30" x1="557.99" y1="591.64" x2="560.96" y2="594.14"/>
		<line class="st30" x1="553.12" y1="597.44" x2="556.09" y2="599.94"/>
		<line class="st30" x1="548.15" y1="602.72" x2="551.12" y2="605.22"/>
	</g>
	<path class="st31" d="M568.35,601.1c0.02,1.67-1.95,3.55-5.88,7.29c-1.14,1.09-2.46,2.25-4.34,2.54c-0.96,0.15-1.8,0.03-2.11-0.02
		c-0.45-0.08-1.71-0.34-2.98-1.31c-1.19-0.91-1.78-1.97-1.97-2.33c-1.01-1.97-0.8-3.92-0.66-4.95c0.07-0.57,0.16-0.99,0.22-1.25
		c0.16-0.68,0.87-3.49,2.82-5.24c0.37-0.33,0.71-0.57,0.78-0.61c0.62-0.4,1.28-0.69,1.96-0.9c0.88-0.27,1.8-0.38,2.72-0.36
		c0.73,0.01,1.47,0.11,2.16,0.29c0.54,0.13,0.91,0.27,1.47,0.48c0.07,0.02,1.93,0.77,2.57,1.12
		C566.4,596.56,568.32,598.72,568.35,601.1z"/>
</g>
<g id="Layer_9" class="st0">
	<path class="st32" d="M501.3,575.88c-1.65-3.12-2.59-6.71-2.59-10.53c0-12.1,9.44-21.91,21.08-21.91
		c11.64,0,21.08,9.81,21.08,21.91c0,3.82-0.94,7.4-2.59,10.53"/>
	<circle class="st33" cx="504.43" cy="581.6" r="5.72"/>
	<path class="st33" d="M524.71,593.06c-3.34-5.86-1.29-13.33,4.58-16.66c5.86-3.34,13.33-1.29,16.66,4.58s1.29,13.33-4.58,16.66"/>
	<g class="st34">
		<path d="M525.4,591.73c0.82,0,1.62,0.43,2.06,1.2c0.65,1.14,0.25,2.58-0.89,3.23c-0.37,0.21-0.77,0.31-1.17,0.31
			c-0.82,0-1.62-0.43-2.06-1.2c-0.65-1.14-0.25-2.58,0.89-3.23C524.6,591.83,525,591.73,525.4,591.73 M525.4,586.73
			C525.4,586.73,525.4,586.73,525.4,586.73c-1.27,0-2.53,0.33-3.64,0.96c-1.71,0.97-2.94,2.55-3.46,4.45
			c-0.52,1.9-0.27,3.88,0.7,5.59c1.31,2.3,3.76,3.72,6.41,3.72c1.27,0,2.53-0.33,3.64-0.96c3.53-2.01,4.77-6.52,2.76-10.05
			C530.5,588.15,528.04,586.73,525.4,586.73L525.4,586.73z"/>
	</g>
	<g class="st34">
		<path d="M540.84,596.92c0.82,0,1.62,0.43,2.06,1.2c0.65,1.14,0.25,2.58-0.89,3.23c-0.37,0.21-0.77,0.31-1.17,0.31
			c-0.82,0-1.62-0.43-2.06-1.2c-0.65-1.14-0.25-2.58,0.89-3.23C540.04,597.02,540.45,596.92,540.84,596.92 M540.84,591.92
			c-1.27,0-2.53,0.33-3.64,0.96c-1.71,0.97-2.94,2.55-3.46,4.45c-0.52,1.9-0.27,3.88,0.7,5.6c1.31,2.3,3.76,3.72,6.41,3.72
			c1.27,0,2.53-0.33,3.64-0.96c3.53-2.01,4.77-6.52,2.76-10.05C545.94,593.35,543.49,591.92,540.84,591.92L540.84,591.92z"/>
	</g>
	<g class="st34">
		<line class="st21" x1="540.23" y1="606.57" x2="545.56" y2="600.18"/>
		<path class="st29" d="M498.68,665.43c-0.28-0.03-0.55-0.15-0.78-0.34l-8.47-7.07c-0.64-0.53-0.72-1.48-0.19-2.11
			s1.48-0.72,2.11-0.19l3.36,2.8l11.56-13.85c0.53-0.64,1.48-0.72,2.11-0.19c0.64,0.53,0.72,1.48,0.19,2.11l-11.55,13.85l2.81,2.34
			c0.64,0.53,0.72,1.48,0.19,2.11C499.68,665.31,499.17,665.49,498.68,665.43z"/>
		<path class="st29" d="M541.1,613.29c-0.01,0.01-0.01,0.01-0.01,0.02l-29.97,35.45l-7.64-6.45l29.97-35.45
			c1.78-2.11,4.94-2.38,7.05-0.59C542.59,608.04,542.86,611.18,541.1,613.29z"/>
		<line class="st30" x1="528.31" y1="612.92" x2="531.29" y2="615.41"/>
		<line class="st30" x1="523.89" y1="618.22" x2="526.87" y2="620.71"/>
		<line class="st30" x1="519.47" y1="623.52" x2="522.45" y2="626.01"/>
		<line class="st30" x1="514.61" y1="629.34" x2="517.6" y2="631.82"/>
		<line class="st30" x1="509.67" y1="634.63" x2="512.65" y2="637.12"/>
		<line class="st30" x1="545.94" y1="599.72" x2="569.12" y2="571.68"/>
	</g>
</g>
<g id="head">
	<path class="st35" d="M561.77,531.51 M603.3,499.94c-1.07,0.05-2.13-0.11-3.1-0.54c-3.6-1.6-4.09-6.17-4.96-11.92
		c-0.78-3.08-1.02-5.92-1.98-9.09c-0.47-1.6-1.13-3.28-2.13-5.12c-2.58-4.76-5.89-7.79-7.57-9.3l-0.01-0.01
		c-0.25-0.22-0.5-0.44-0.75-0.66c-0.1-0.09-0.21-0.17-0.32-0.25c-3.76-3.14-7.43-4.98-10.01-6.05c1.02-1.2,2.27-2.84,3.49-4.91
		c-0.08-0.1-0.15-0.21-0.22-0.31c-1.29,1.81-2.83,3.43-4.57,4.88c-20.44,17.03-68.97,10.53-83.24,8.61
		c-35.49-1.91-50.13-13.12-62.13-6.86c-0.18,0.09-0.37,0.19-0.55,0.3c-0.18,0.1-0.37,0.22-0.55,0.33c-0.23,0.15-0.46,0.3-0.68,0.45
		c-0.21,0.14-0.42,0.29-0.62,0.44c-12.49,9.32-9.39,30.96-20.27,32.8c-2.25,0.38-4.38-0.2-6.13-1.04v16.68
		c0,38.53,31.24,69.76,69.77,69.76h67.4c38.53,0,69.76-31.23,69.76-69.76v-8.29C603.71,500.05,603.5,500.01,603.3,499.94z"/>
	<path class="st35" d="M561.77,531.51"/>
	<path d="M561.77,531.51"/>
	<circle cx="437.77" cy="511.96" r="19.55"/>
	<circle class="st36" cx="443.97" cy="509.52" r="7.55"/>
	<circle class="st36" cx="428.87" cy="519.05" r="3.08"/>
	<circle cx="561.77" cy="511.96" r="19.55"/>
	<circle class="st36" cx="567.97" cy="509.52" r="7.55"/>
	<circle class="st36" cx="552.87" cy="519.05" r="3.08"/>
	<path class="st19" d="M514.24,544.29c0,6.48-7.2,11.73-14.84,11.73c-7.65,0-14.84-5.25-14.84-11.73"/>
	<path class="st26" d="M580.58,437.38c0,0.04-0.01,0.07-0.01,0.11c-0.02,0.36-0.05,0.72-0.09,1.08c-0.07,0.72-0.17,1.44-0.29,2.15
		c-0.06,0.36-0.13,0.71-0.21,1.07c-0.02,0.09-0.04,0.17-0.05,0.26c-0.02,0.06-0.03,0.11-0.04,0.17c-0.03,0.14-0.07,0.28-0.11,0.43
		c-0.01,0.07-0.02,0.13-0.04,0.19c-0.01,0.05-0.02,0.09-0.04,0.13c-0.05,0.25-0.12,0.49-0.19,0.73c-0.09,0.33-0.19,0.67-0.29,1
		c-0.08,0.24-0.16,0.48-0.25,0.71c-0.04,0.09-0.06,0.17-0.09,0.25c0,0.01,0,0.01,0,0.02c-0.03,0.08-0.06,0.17-0.09,0.26
		c-0.03,0.08-0.05,0.16-0.08,0.23c-0.07,0.21-0.13,0.38-0.18,0.49c-0.04,0.12-0.09,0.24-0.14,0.36c-0.48,1.16-1.05,2.28-1.71,3.35
		c-0.3,0.48-0.61,0.95-0.94,1.41c-1.29,1.81-2.83,3.43-4.57,4.88c-20.44,17.03-68.97,10.53-83.24,8.61
		c-33.36-4.47-49.87-13.48-62.13-6.86c-0.18,0.09-0.37,0.19-0.55,0.3c-0.18,0.1-0.37,0.22-0.55,0.33c-0.23,0.15-0.46,0.3-0.68,0.45
		c-0.21,0.14-0.42,0.29-0.62,0.44c-12.49,9.32-9.39,30.96-20.27,32.8c-2.25,0.38-4.38-0.2-6.13-1.04c-2.46-1.17-4.15-2.83-4.27-2.96
		c-3.65-3.95-3.63-51.71,26.14-80.26c44.3-42.49,139.92-28.43,158.13,10.13c0.55,1.17,1.05,2.4,1.49,3.68
		C580.09,426.91,580.92,432.19,580.58,437.38z"/>
	<path class="st26" d="M609.8,497.53c-3.22,2.4-6.5,2.41-6.5,2.41c-1.07,0.05-2.13-0.11-3.1-0.54c-3.6-1.6-4.09-6.17-4.96-11.92
		c-0.42-2.81-0.94-5.91-1.98-9.09c-0.47-1.6-1.13-3.28-2.13-5.12c-1.6-3.04-4.12-6.55-8.33-9.97c-0.1-0.09-0.21-0.17-0.32-0.25
		c-3.76-3.14-7.43-4.98-10.01-6.05c1.02-1.2,2.27-2.84,3.49-4.91c0.86-1.47,1.7-3.16,2.43-5.07c0.05-0.12,0.1-0.24,0.14-0.36
		c0.05-0.11,0.11-0.28,0.18-0.49c0.03-0.07,0.05-0.15,0.08-0.23c0.03-0.09,0.06-0.18,0.09-0.26c0.13-0.32,0.25-0.65,0.34-0.98
		c0.21-0.61,0.38-1.23,0.52-1.86c0.02-0.06,0.03-0.12,0.04-0.19c0.04-0.15,0.08-0.29,0.11-0.43c0.01-0.06,0.02-0.11,0.04-0.17
		c0.03-0.09,0.05-0.18,0.05-0.26c0.08-0.36,0.15-0.71,0.21-1.07c0.13-0.71,0.22-1.43,0.29-2.15c0.04-0.36,0.07-0.72,0.09-1.08
		c0-0.04,0.01-0.07,0.01-0.11c0.33-3.49,0.44-9.33-1.71-16.38c8.48,4.49,19.69,12.39,27.33,25.73
		C619.04,469.16,614.43,494.08,609.8,497.53z"/>
	<path class="st26" d="M572.47,457c2.58,1.07,6.25,2.91,10.01,6.05C579.85,460.95,576.57,458.89,572.47,457z"/>
	<path class="st26" d="M593.26,478.39c-0.54-1.69-1.23-3.41-2.13-5.12C592.13,475.11,592.79,476.79,593.26,478.39z"/>
	<path class="st26" d="M578.97,445.41c-0.03,0.09-0.05,0.18-0.09,0.27c0-0.01,0-0.01,0-0.02
		C578.91,445.58,578.93,445.5,578.97,445.41z"/>
	<path class="st26" d="M580.57,437.49c-0.02,0.36-0.05,0.72-0.09,1.08c-0.07,0.72-0.17,1.44-0.29,2.15
		c-0.06,0.36-0.13,0.71-0.21,1.07c-0.02,0.09-0.04,0.17-0.05,0.26c-0.02,0.06-0.03,0.11-0.04,0.17c-0.03,0.14-0.07,0.28-0.11,0.43
		c-0.01,0.07-0.02,0.13-0.04,0.19c-0.01,0.05-0.02,0.09-0.04,0.13c-0.05,0.25-0.12,0.49-0.19,0.73c-0.09,0.33-0.19,0.67-0.29,1
		c-0.08,0.24-0.16,0.48-0.25,0.71C579.46,443.83,580.22,441.04,580.57,437.49z"/>
	<path class="st18" d="M459.13,405.2c-10.38,2.66-17.07,7.67-17.07,7.67"/>
	<circle class="st18" cx="467.87" cy="402.8" r="0.27"/>
</g>
<g id="head_copy" class="st0">
	<path class="st37" d="M534.17,578.13h-67.4c-38.53,0-69.77-31.24-69.77-69.77v-22.5c0-33.17,26.89-60.07,60.07-60.07h86.8
		c33.17,0,60.07,26.89,60.07,60.07v22.5C603.93,546.9,572.7,578.13,534.17,578.13z"/>
	<circle class="st34" cx="561.77" cy="511.96" r="19.55"/>
	<circle class="st38" cx="567.97" cy="509.52" r="7.55"/>
	<circle class="st38" cx="552.87" cy="519.05" r="3.08"/>
	<circle class="st34" cx="437.77" cy="511.96" r="19.55"/>
	<circle class="st38" cx="443.97" cy="509.52" r="7.55"/>
	<circle class="st38" cx="428.87" cy="519.05" r="3.08"/>
	<path class="st39" d="M514.24,544.29c0,6.48-7.2,11.73-14.84,11.73c-7.65,0-14.84-5.25-14.84-11.73"/>
	<path class="st40" d="M548.38,438.2c-0.61,5.64-2.5,11.05-5.78,15.33c-10.81,14.1-34.29,12.83-54.67,11.74
		c-37.89-2.04-52.01-14.67-64.53-5.34c-12.49,9.32-9.39,30.96-20.27,32.8c-5.42,0.92-10.19-3.78-10.4-4
		c-12.46-12.66-0.77-57.61,26.14-80.26c34.54-29.08,96.36-23.27,119.76,0.78c2.65,2.71,4.8,5.66,6.37,8.82
		C547.94,423.98,549.13,431.26,548.38,438.2z"/>
	<path class="st40" d="M610.33,489.8c-3.37,4.08-10.06,7-15.2,5.07c-11.31-4.25-2.2-27.18-16.6-42.67
		c-7.04-7.59-18.67-12.25-30.15-14c0.75-6.94-0.44-14.22-3.38-20.13c-1.57-3.16-3.72-6.11-6.37-8.82
		c18.74,0.05,39.65,10.16,53.3,24.28C607.88,450.03,619.93,478.2,610.33,489.8z"/>
</g>
<g id="Layer_4" class="st0">
</g>
</svg>
