<?xml version="1.0" encoding="utf-8"?>
<!-- Generator: Adobe Illustrator 25.4.1, SVG Export Plug-In . SVG Version: 6.00 Build 0)  -->
<svg version="1.1" xmlns="http://www.w3.org/2000/svg" xmlns:xlink="http://www.w3.org/1999/xlink" x="0px" y="0px"
	 viewBox="0 0 1000 1000" style="enable-background:new 0 0 1000 1000;" xml:space="preserve">
<style type="text/css">
	.st0{display:none;}
	.st1{display:inline;}
	.st2{fill:#5E320B;}
	.st3{fill:#FFFFFF;}
	.st4{display:inline;fill:none;}
	.st5{fill:#333333;}
	.st6{fill:#CCCCCC;}
	.st7{fill:#ED1C24;}
	.st8{fill:#1A1A1A;}
	.st9{fill:#FDD8C2;}
	.st10{fill:#212121;}
	.st11{fill:#42210B;}
	.st12{fill:#E6E6E6;}
	.st13{fill:#999999;}
	.st14{fill:#7C0009;}
	.st15{opacity:0.9;fill:#EE8B9F;}
	.st16{opacity:0.3;}
	.st17{opacity:0.3;fill:none;stroke:#FFFFFF;stroke-width:10;stroke-linecap:round;stroke-linejoin:round;stroke-miterlimit:10;}
	.st18{opacity:0.3;fill:none;stroke:#FFFFFF;stroke-width:8;stroke-linecap:round;stroke-linejoin:round;stroke-miterlimit:10;}
	.st19{opacity:0.3;fill:none;stroke:#FFFFFF;stroke-width:4;stroke-miterlimit:10;}
	.st20{opacity:0.3;fill:none;stroke:#FFFFFF;stroke-width:3;stroke-miterlimit:10;}
	.st21{opacity:0.5;fill:none;stroke:#000000;stroke-width:8;stroke-linecap:round;stroke-linejoin:round;stroke-miterlimit:10;}
	.st22{opacity:0.5;}
	.st23{opacity:0.5;fill:none;stroke:#000000;stroke-width:4;stroke-linecap:round;stroke-linejoin:round;stroke-miterlimit:10;}
	.st24{opacity:0.3;fill:none;stroke:#000000;stroke-width:10;stroke-linecap:round;stroke-linejoin:round;stroke-miterlimit:10;}
	.st25{display:inline;fill:none;stroke:#000000;stroke-width:5;stroke-linecap:round;stroke-linejoin:round;stroke-miterlimit:10;}
	.st26{fill:none;stroke:#000000;stroke-width:8;stroke-linecap:round;stroke-linejoin:round;stroke-miterlimit:10;}
	.st27{fill:none;stroke:#000000;stroke-width:10;stroke-linecap:round;stroke-linejoin:round;stroke-miterlimit:10;}
	.st28{fill:none;stroke:#000000;stroke-width:6;stroke-linecap:round;stroke-linejoin:round;stroke-miterlimit:10;}
	.st29{fill:none;stroke:#000000;stroke-width:4;stroke-linecap:round;stroke-linejoin:round;stroke-miterlimit:10;}
	.st30{fill:none;stroke:#000000;stroke-width:5;stroke-linecap:round;stroke-linejoin:round;stroke-miterlimit:10;}
	.st31{fill:none;stroke:#000000;stroke-width:8.8894;stroke-linecap:round;stroke-linejoin:round;stroke-miterlimit:10;}
	.st32{fill:none;stroke:#000000;stroke-width:2;stroke-linecap:round;stroke-linejoin:round;stroke-miterlimit:10;}
	.st33{fill:none;stroke:#000000;stroke-width:8;stroke-miterlimit:10;}
	.st34{fill:none;stroke:#000000;stroke-width:12.1086;stroke-linecap:round;stroke-linejoin:round;stroke-miterlimit:10;}
	.st35{fill:none;stroke:#000000;stroke-width:10;stroke-miterlimit:10;}
</style>
<g id="Layer_1" class="st0">
</g>
<g id="Layer_4" class="st0">
	<g class="st1">
		<g>
			<path d="M642.44,595.89l18.68,18.23c1.86,1.81,1.9,4.79,0.08,6.65c-1.81,1.86-4.79,1.9-6.65,0.08c-0.23-0.22-0.44-0.49-0.62-0.74
				l-14.57-21.66c-0.62-0.92-0.37-2.17,0.55-2.79C640.72,595.12,641.77,595.24,642.44,595.89z"/>
		</g>
		<g>
			<ellipse class="st2" cx="658.33" cy="618.13" rx="4.21" ry="4.21"/>
			<path class="st3" d="M658.32,614.39c2.07,0,3.75,1.67,3.75,3.74c0,2.06-1.68,3.74-3.75,3.74s-3.75-1.67-3.75-3.74
				C654.58,616.07,656.26,614.39,658.32,614.39 M658.32,613.46c-2.58,0-4.68,2.1-4.68,4.67s2.1,4.67,4.68,4.67s4.68-2.1,4.68-4.67
				S660.91,613.46,658.32,613.46L658.32,613.46z"/>
		</g>
	</g>
	<path class="st4" d="M519.75,550.9c-1.18-0.32-1.94-0.37-6.4-0.44c-7.69-0.12-8.26,0-9.34-0.65c-2.42-1.47-4.05-4.82-3.46-7.91
		c0.07-0.38,0.53-2.58,2.5-4.15c1.94-1.54,4.12-1.52,5.6-1.5c1.17,0.01,3.65,0.2,7.05,2.1c1.49,0.83,4.12,2.52,8.63,8.25
		c3.51,4.46,7.18,10.1,6.57,10.6c-0.34,0.27-1.58-1.27-5.03-3.4C524.08,552.7,522.19,551.56,519.75,550.9z"/>
</g>
<g id="color">
	<polygon class="st5" points="465.34,582.37 448.59,643.93 548.65,645.53 532.4,581.53 	"/>
	<path class="st6" d="M505.82,623.31c0.32,0.13,4.97,0.4,5.24,0c0.28-0.4,0-4.26,0-4.26l-5.03-1.34L505.82,623.31z"/>
	<path class="st6" d="M502.51,638.74c0.32,0.13,4.97,0.4,5.24,0c0.28-0.4,0-4.26,0-4.26l-5.03-1.34L502.51,638.74z"/>
	<polygon class="st6" points="492.33,594.07 501,587.08 505.8,594.73 514.2,583.53 501.67,581.91 489.3,582.07 486.95,588.32 	"/>
	<path class="st7" d="M494.33,598.07c0.4,0,6.67,2.93,6.67,2.93l6.67-6.93l-7.67-4.62l-6.6,4.62L494.33,598.07z"/>
	<path class="st8" d="M502.27,609.46c1.12,0.34,8.92-1.46,8.92-1.46l1.44-5.04c0,0,4.17-3.56,5.57-4.36c1.4-0.8,6.61-2.2,6.61-2.2
		s0.41-5.92,0-6.96c-0.41-1.04-7.94-5.29-7.94-5.29l-18.25,20.73L502.27,609.46z"/>
	<path class="st8" d="M497.73,609.46c-1.12,0.34-8.92-1.46-8.92-1.46l-1.44-5.04c0,0-4.17-3.56-5.57-4.36
		c-1.4-0.8-6.61-2.2-6.61-2.2s-0.41-5.92,0-6.96c0.41-1.04,7.94-5.29,7.94-5.29l18.25,20.73L497.73,609.46z"/>
	<polygon class="st8" points="450.35,618.14 438.93,611.06 442.19,605.2 449.88,607.01 454.99,613.53 	"/>
	<polygon class="st5" points="552.12,609.82 562.18,597.11 542.02,581.23 535.99,589.78 	"/>
	<polygon class="st5" points="455.99,610.04 442.52,601 456.88,579.72 465.22,586.03 	"/>
	<polygon class="st9" points="438.93,628.48 453.87,621.66 437.55,610.04 434.43,627.34 	"/>
	<polygon class="st9" points="532.4,581.53 575.8,566.25 601.41,528.24 603.77,495.67 601.13,465.83 510.19,476.99 421.85,470.77 
		398.2,465.82 406.47,543.15 442.52,575.49 	"/>
	<polygon class="st5" points="483.13,476.99 570.48,469.59 642.45,450.34 662.07,426.06 631.24,396.2 606.93,384.22 592.87,357.45 
		575.8,334.4 549.8,323.93 506.76,343.38 481.33,339.52 454.99,324.8 426.33,332.57 404.26,363.36 395.75,389.1 349.49,406.64 
		337.27,426.06 351.16,446.7 393.08,465.82 	"/>
	<path class="st10" d="M402.6,392.73l50.93,15.47l60.53,2.13l64.43-10.61l23.84-10.61l5.87,30.83c0,0-28.8,16.53-29.6,16.8
		c-0.8,0.27-118.67,7.86-118.67,7.86l-52.27-16.12l-16-11.62l2.4-24.11H402.6z"/>
	<polygon class="st11" points="606.93,509.73 620.72,493.27 619.35,469.54 617.08,461.24 602.6,467.67 	"/>
	<polygon class="st11" points="393.07,509.73 379.28,493.27 380.65,469.54 382.92,461.24 397.4,467.67 	"/>
	<polygon class="st8" points="519.5,650.71 531.16,664.44 539.08,661.95 540.73,647.33 	"/>
	<polygon class="st8" points="480.5,650.71 468.84,664.44 460.92,661.95 459.27,647.33 	"/>
	
		<ellipse transform="matrix(0.5999 -0.8001 0.8001 0.5999 -57.502 592.1266)" class="st12" cx="563.29" cy="353.56" rx="7.89" ry="16.98"/>
	<circle class="st12" cx="580.6" cy="369.2" r="3.6"/>
	<polygon class="st11" points="565.93,590.65 573.36,582.96 581.02,590.32 575.6,597.87 573.64,600.32 565.79,596.32 563.43,592.83 
			"/>
	<polygon class="st13" points="594.19,559.97 611,544.29 616.66,540.59 616.55,545.09 612.38,556.76 608.56,558.5 600.84,563.43 
		598.31,567.77 597.31,572.51 593.78,576.06 591.11,580.3 591.37,586.01 585.13,592.71 573.66,582.27 	"/>
	<path class="st14" d="M591.75,584.94l12.69-17.66l4.71-7.37l-1.8-0.76l-8.06,6.42l-3.34,6.91l-1.29,2.75c0,0-4.28,3.8-4.24,4
		c0.05,0.2-0.82,5.92-0.82,5.92L591.75,584.94z"/>
	<polygon class="st9" points="559.59,609.82 569.2,608.58 568.1,602.8 564.14,598.9 555.7,598.9 556.6,607.9 	"/>
	
		<ellipse transform="matrix(0.325 -0.9457 0.9457 0.325 -125.6439 903.2189)" class="st15" cx="569.9" cy="539.62" rx="4.74" ry="10.73"/>
	
		<ellipse transform="matrix(0.9457 -0.325 0.325 0.9457 -152.022 169.0664)" class="st15" cx="430.1" cy="539.62" rx="10.73" ry="4.74"/>
</g>
<g id="light_shadow">
	<g class="st16">
		<path class="st3" d="M400.2,390.78c-0.91-6.26,1.1-11.74,2.52-17.42c1.58-5.64,3.43-11.26,5.74-16.8c0.59-1.38,1.2-2.76,1.83-4.13
			c0.68-1.35,1.31-2.73,2.07-4.07c1.41-2.72,3.07-5.34,4.87-7.91c0.92-1.27,1.9-2.55,2.87-3.77c0.99-1.2,2.03-2.38,3.14-3.55
			c2.2-2.35,4.72-4.58,7.62-6.53c1.45-0.97,2.98-1.88,4.64-2.67c1.66-0.77,3.38-1.43,5.19-1.94c3.6-1.02,7.55-1.49,11.62-0.95
			c2.03,0.26,4.08,0.79,5.91,1.46c1.85,0.67,3.52,1.48,5.05,2.31c3.06,1.67,5.57,3.44,7.8,4.87c4.49,2.89,9.06,5.4,13.64,7.26
			c4.59,1.82,9.18,2.99,13.65,3.18c2.1,0.11,4.47-0.06,6.83-0.39c2.37-0.32,4.72-0.89,7.02-1.58c2.3-0.69,4.53-1.56,6.66-2.61
			c0.54-0.26,1.06-0.52,1.57-0.82c0.51-0.28,1.03-0.56,1.61-0.91c1.13-0.66,2.29-1.37,3.48-2.11c4.75-2.94,10.15-6.55,16.8-8.86
			l1.26-0.42l1.51-0.41c1.01-0.26,2.03-0.43,3.04-0.56c2.03-0.26,4.02-0.22,5.95-0.06c3.84,0.4,7.35,1.5,10.55,2.94
			c3.19,1.46,6.1,3.3,8.75,5.41c2.64,2.1,4.95,4.47,7.03,6.92c2.06,2.47,3.87,5.04,5.5,7.65c1.61,2.63,3.05,5.26,4.41,7.95
			c1.37,2.68,2.58,5.43,3.67,8.23c0.55,1.39,1.07,2.8,1.56,4.21c0.25,0.71,0.49,1.4,0.72,2.13c0.24,0.75,0.45,1.49,0.65,2.24
			c1.57,5.95,2.11,11.59,3.38,17.01l0.01,0.03c0.24,1.03-0.4,2.05-1.42,2.3c-0.85,0.2-1.69-0.2-2.1-0.92
			c-2.96-5.25-4.8-10.89-7.21-15.68c-1.2-2.3-2.6-4.81-4.02-7.14c-1.45-2.35-2.97-4.63-4.52-6.88c-1.56-2.24-3.22-4.43-4.93-6.48
			c-1.69-2.06-3.44-3.99-5.28-5.73c-3.66-3.49-7.64-6.15-11.85-7.66c-1.04-0.39-2.09-0.66-3.1-0.9c-1.02-0.2-2.01-0.31-2.94-0.35
			c-0.93-0.01-1.82,0.02-2.62,0.19c-0.4,0.08-0.79,0.17-1.16,0.3c-0.18,0.07-0.37,0.13-0.55,0.18l-0.77,0.31
			c-4.14,1.68-8.28,4.64-13.05,8.01c-1.19,0.84-2.43,1.7-3.73,2.55c-0.62,0.42-1.35,0.86-2.08,1.29c-0.72,0.44-1.45,0.85-2.19,1.24
			c-2.96,1.59-6.04,2.92-9.19,3.99c-3.16,1.06-6.39,1.86-9.68,2.39c-3.29,0.52-6.66,0.87-10.29,0.68c-7-0.3-13.66-2.1-19.63-4.68
			c-6-2.55-11.38-5.85-16.39-9.36c-2.52-1.76-4.65-3.38-6.56-4.56c-1.94-1.2-3.51-1.88-5.05-2.18c-1.61-0.31-3.48-0.29-5.43,0.1
			c-1.96,0.41-3.89,1.12-5.89,2.16c-1.98,1.05-3.96,2.42-5.94,3.98c-0.99,0.79-1.96,1.63-2.94,2.52c-0.97,0.89-1.88,1.76-2.8,2.69
			c-0.88,0.96-1.82,1.88-2.65,2.91l-1.31,1.5l-1.26,1.57c-1.68,2.1-3.25,4.34-4.8,6.61c-3.04,4.6-5.81,9.49-8.35,14.54
			C405.91,380.63,404.36,386.05,400.2,390.78z"/>
	</g>
	<path class="st17" d="M398.2,397c0,0,47.07,21.93,101.8,19.53S581.47,407,601.53,397"/>
	<g class="st16">
		<path class="st3" d="M612.63,392.04c4.47,1.65,8.66,3.47,12.87,5.47c4.18,2,8.28,4.17,12.22,6.61c3.93,2.45,7.75,5.14,11.1,8.38
			c1.67,1.62,3.23,3.37,4.5,5.32c1.26,1.95,2.22,4.12,2.53,6.39c-0.6-2.21-1.8-4.16-3.23-5.87c-1.45-1.7-3.15-3.17-4.93-4.5
			c-3.58-2.67-7.56-4.77-11.62-6.63c-4.08-1.85-8.28-3.43-12.53-4.83c-4.24-1.39-8.61-2.64-12.85-3.61l-0.06-0.01
			c-1.89-0.43-3.07-2.32-2.63-4.21c0.43-1.89,2.32-3.07,4.21-2.63C612.34,391.94,612.5,391.99,612.63,392.04z"/>
	</g>
	<g class="st16">
		<path class="st3" d="M389.3,398.77c-4.28,0.97-8.69,2.22-12.97,3.6c-4.29,1.4-8.53,2.97-12.65,4.81
			c-4.1,1.86-8.12,3.95-11.75,6.62c-1.81,1.33-3.53,2.8-4.99,4.51c-1.45,1.71-2.67,3.67-3.28,5.9c0.31-2.28,1.3-4.47,2.58-6.42
			c1.29-1.96,2.88-3.71,4.57-5.32c3.4-3.24,7.26-5.92,11.24-8.37c3.99-2.44,8.13-4.6,12.35-6.6c4.24-1.99,8.48-3.8,12.98-5.45
			c1.82-0.67,3.84,0.27,4.5,2.09c0.67,1.82-0.27,3.84-2.09,4.5c-0.14,0.05-0.27,0.09-0.41,0.12L389.3,398.77z"/>
	</g>
	<line class="st18" x1="469.89" y1="586.03" x2="452.2" y2="643.99"/>
	<line class="st18" x1="499.62" y1="611.92" x2="492.73" y2="645.53"/>
	<path class="st19" d="M575.11,583.59c0,0,18.44-21.05,20.55-22.87c0,0,12.72-13.15,17.09-15.85c4.37-2.7,3.31-2.17,3.31-2.17"/>
	<line class="st20" x1="564.2" y1="593.66" x2="573.06" y2="584.05"/>
	<g class="st16">
		<path class="st3" d="M392.49,507.04c-0.59-0.28-0.91-0.51-1.31-0.81c-0.37-0.29-0.72-0.59-1.04-0.92
			c-0.63-0.66-1.2-1.36-1.69-2.11c-1-1.48-1.77-3.06-2.42-4.68c-0.66-1.61-1.12-3.27-1.54-4.94c-0.2-0.83-0.35-1.67-0.53-2.51
			c-0.15-0.88-0.26-1.75-0.33-2.62c-0.26-3.46-0.09-6.8,0.04-10.1c0.16-3.3,0.33-6.56,0.4-9.81c0.02-1.1,0.93-1.98,2.04-1.96
			c1.1,0.02,1.98,0.93,1.96,2.04c0,0.01,0,0.03,0,0.04c-0.13,3.33-0.35,6.64-0.59,9.92c-0.23,3.27-0.49,6.53-0.35,9.64
			c0.03,0.78,0.11,1.54,0.21,2.29c0.14,0.78,0.26,1.56,0.42,2.34c0.34,1.54,0.71,3.07,1.26,4.53c0.53,1.46,1.17,2.87,1.98,4.15
			c0.4,0.64,0.84,1.25,1.3,1.82c0.24,0.27,0.46,0.56,0.71,0.81c0.22,0.24,0.54,0.54,0.66,0.67l0.25,0.27
			c0.46,0.5,0.44,1.27-0.06,1.73C393.48,507.18,392.93,507.25,392.49,507.04z"/>
	</g>
	<g class="st16">
		<path class="st3" d="M606.34,504.83c0.12-0.13,0.44-0.43,0.66-0.67c0.25-0.25,0.47-0.54,0.71-0.81c0.46-0.57,0.9-1.18,1.3-1.82
			c0.8-1.28,1.44-2.69,1.98-4.15c0.55-1.46,0.92-2.99,1.26-4.53c0.16-0.77,0.28-1.56,0.42-2.34c0.1-0.75,0.18-1.51,0.21-2.29
			c0.14-3.12-0.11-6.37-0.35-9.64c-0.24-3.28-0.46-6.59-0.59-9.92c-0.04-1.1,0.82-2.03,1.92-2.08c1.1-0.04,2.03,0.82,2.08,1.92
			c0,0.01,0,0.03,0,0.04c0.06,3.25,0.24,6.52,0.4,9.81c0.13,3.3,0.3,6.64,0.04,10.1c-0.07,0.86-0.18,1.74-0.33,2.62
			c-0.18,0.84-0.33,1.68-0.53,2.51c-0.42,1.66-0.88,3.32-1.54,4.94c-0.65,1.61-1.42,3.19-2.42,4.68c-0.49,0.75-1.06,1.45-1.69,2.11
			c-0.32,0.33-0.67,0.63-1.04,0.92c-0.4,0.3-0.72,0.53-1.31,0.81c-0.61,0.29-1.34,0.03-1.64-0.58c-0.22-0.47-0.13-1.01,0.21-1.37
			L606.34,504.83z"/>
	</g>
</g>
<g id="dark_shadow">
	<line class="st21" x1="493.44" y1="612" x2="486.95" y2="644.55"/>
	<line class="st21" x1="528.6" y1="586.03" x2="546.72" y2="646"/>
	<g class="st22">
		<path d="M343.67,423.7c-0.07,1.83,0.57,3.48,1.36,4.95c0.84,1.46,1.88,2.75,3.06,3.91c2.36,2.32,5.14,4.21,8.05,5.88
			c2.93,1.66,5.99,3.12,9.14,4.46l9.7,3.94c12.68,5.05,26.2,8.11,39.98,10.19c13.79,2.1,27.84,3.4,42.08,4.76
			c14.05,1.39,28.07,2.16,42.18,2.23c7.05,0.01,14.1-0.09,21.14-0.39c7.05-0.3,14.09-0.74,21.12-1.3
			c7.03-0.58,14.06-1.27,21.06-2.14c3.49-0.46,7.02-0.86,10.49-1.35c3.48-0.48,6.94-1.04,10.39-1.61
			c6.92-1.14,13.77-2.57,20.59-4.17c3.4-0.81,6.78-1.72,10.15-2.66c3.38-0.94,6.72-1.95,9.98-3.08c3.28-1.12,6.49-2.39,9.64-3.72
			c3.15-1.33,6.24-2.76,9.2-4.34c2.94-1.6,5.77-3.36,8.16-5.55c2.37-2.19,4.3-4.94,4.7-8.68c0.78,1.69,1.02,3.69,0.79,5.68
			c-0.25,1.99-0.96,3.92-1.92,5.68c-1.94,3.52-4.7,6.39-7.62,8.85c-5.9,4.93-12.65,8.27-19.42,11.19
			c-6.82,2.91-13.67,5.35-20.67,7.51c-6.99,2.17-14.08,3.98-21.22,5.52c-14.32,3.07-28.65,4.92-43.09,6.39
			c-14.44,1.41-28.94,2.1-43.47,2.19c-14.51,0.08-29.1-0.5-43.53-1.85c-14.24-1.31-28.71-2.72-43.11-5.58
			c-7.19-1.44-14.38-3.17-21.45-5.45c-7.06-2.3-14.06-4.98-20.68-8.53c-1.68-0.89-3.22-1.8-4.78-2.73l-2.35-1.37
			c-0.8-0.49-1.6-0.98-2.39-1.49c-3.16-2.05-6.21-4.34-9.01-6.97c-2.78-2.63-5.36-5.63-7.15-9.14c-0.9-1.74-1.57-3.64-1.84-5.59
			C342.66,427.39,342.77,425.34,343.67,423.7z"/>
	</g>
	<path class="st23" d="M572.55,600.55"/>
	<path class="st23" d="M579.49,590.62"/>
	<path class="st24" d="M397.61,419.53c0,0,47.07,21.93,101.8,19.53c54.73-2.4,81.47-9.53,101.53-19.53"/>
	<ellipse cx="500.13" cy="666.33" rx="66.6" ry="3.73"/>
</g>
<g id="Layer_6" class="st0">
	<path class="st25" d="M625.3,615.3"/>
</g>
<g id="out_line">
	<path class="st26" d="M561.18,596.28c-0.07,0.08-0.14,0.16-0.21,0.24c-0.26,0.02-0.53,0.05-0.79,0.08
		c-1.74,0.22-3.44,0.82-4.76,1.75c-1.06,0.72-1.88,1.63-2.35,2.72c-0.7,1.66-0.53,3.7,0.18,5.56c0.18,0.47,0.39,0.92,0.63,1.35
		c0.11,0.2,0.23,0.39,0.36,0.58c0.15,0.92,0.35,1.71,1.01,2.32c0.52,0.46,0.48,0.22,1.1,0.46c-0.78-0.19-0.29,0.22-1.02-0.1
		l-1.82-2.25l-0.94-1.16l-0.54-0.67l-0.38,0.32l-15.72-15.41l-3.27-9.7l5-1.98c5.04,3.01,21.2,13.1,22.97,14.58
		C560.41,595.22,561.39,596.04,561.18,596.28z"/>
	<path class="st27" d="M541.86,647.67h-85.28c-5.35,0-9.17-5.19-7.58-10.3l17.33-55.84h66.07l0.26,0.84l3.21,10.51l9.25,30.33
		l4.37,14.32C550.95,642.61,547.14,647.67,541.86,647.67z"/>
	<path class="st28" d="M521.92,597.02l-6.64,2.85c-1.16,0.58-2.06,1.58-2.53,2.79l-1.29,3.33c-0.77,1.98-2.65,3.3-4.77,3.36
		l-6.54,0.17h-0.22c-2.04-0.11-3.12-2.56-1.74-4.15l1.81-2.09l18.85-21.75l5.36,8.36C525.57,592.49,524.54,595.7,521.92,597.02z"/>
	<path class="st28" d="M499.93,609.52h-0.08l-6.54-0.17c-2.12-0.06-4-1.38-4.77-3.36l-1.29-3.33c-0.47-1.21-1.37-2.21-2.53-2.79
		l-6.64-3.85c-2.62-1.32-3.65-4.53-2.29-7.13l4.36-8.36L500,603.28l-1.81,2.09C496.81,606.96,497.89,609.41,499.93,609.52z"/>
	<circle class="st29" cx="508.76" cy="621" r="3.43"/>
	<circle class="st29" cx="505.76" cy="635.72" r="3.43"/>
	<line class="st28" x1="497.57" y1="607.01" x2="489.3" y2="647.67"/>
	<line class="st30" x1="500" y1="587.9" x2="504.55" y2="584.15"/>
	<polyline class="st30" points="495.45,584.15 500,587.9 493.4,594.73 	"/>
	<line class="st30" x1="500" y1="587.9" x2="506.6" y2="594.73"/>
	<path class="st31" d="M438.33,627.45c3.6,2.31,8.37,0.27,11.4-1.65c1.17-0.74,2.2-1.62,3.15-2.59l12.46-40.84l-0.11-0.07
		l-9.35-2.58c-4.55,6.11-9.32,13.15-13.33,19.62c-2.58,4.16-5.24,8.45-6.97,13.08c-0.25,0.65-0.46,1.31-0.64,1.98
		C433.92,618.31,434.12,624.75,438.33,627.45z"/>
	<line class="st30" x1="437.55" y1="610.04" x2="450.35" y2="618.14"/>
	<line class="st30" x1="442.19" y1="602.96" x2="454.99" y2="611.06"/>
	<path class="st26" d="M540.73,647.33l-0.48,11.24c-0.24,5.54-7.12,7.93-10.75,3.74l-12.64-14.65"/>
	<path class="st26" d="M459.27,647.33l0.48,11.24c0.24,5.54,7.12,7.93,10.75,3.74l12.64-14.65"/>
	<circle class="st32" cx="572.38" cy="591.85" r="1.41"/>
	<g>
		<g>
			<g>
				<path class="st11" d="M562.84,611.41c-1.41,1.27-2.71,2.34-3.86,3.24c0.7,2.37,0.19,5.07-1.61,7.03
					c-5.32,5.83-15.3-0.28-12.24-7.68c0.64-1.54,1.78-2.81,2.91-4.05c1.19-1.31,2.39-2.61,3.58-3.92c0.64-0.7,1.28-1.4,1.91-2.1
					c-0.17,2.33,0.42,4.65,1.82,5.98c0.51,0.48,1.08,0.85,1.69,1.1c0,0.01,0.01,0.01,0.02,0c0.25,0.08,0.51,0.13,0.77,0.19
					c0.96,0.19,2.07,0.34,3.21,0.34c0.7-0.06,1.41-0.19,2.07-0.38C563.03,611.24,562.93,611.33,562.84,611.41z"/>
				<path class="st32" d="M617.36,540.33c-1.65,6.35-4.27,12.55-7.3,18.33c-0.07,0.05-0.17,0.09-0.26,0.13
					c-0.01-0.01-0.03-0.02-0.04-0.03c-0.01-0.01-0.05-0.02-0.1-0.02c-0.17-0.03-0.52-0.05-0.88-0.01c-0.06,0-0.11,0.01-0.17,0.03
					c-0.02,0-0.04,0.01-0.06,0.01c-0.53,0.11-1.59,0.73-2.05,1.04c-0.16,0.11-0.32,0.22-0.49,0.34c-0.02,0.01-0.04,0.03-0.07,0.05
					c-1.79,1.09-3.84,2.61-5.84,4.78c-0.28,0.28-0.53,0.58-0.78,0.87c-0.06,0.08-0.12,0.15-0.18,0.22
					c-0.66,0.75-1.02,1.15-1.33,1.71c-1.24,2.18-0.72,3.5-1.3,5.33c-0.92,2.87-3.02,2.01-5.19,5.59c-1.05,1.75-1.41,3.37-1.46,4.66
					c-0.3,1.82,0.1,2.58,0.44,2.96c0,0.03,0.02,0.04,0.02,0.04c0.08,0.09,0.16,0.17,0.25,0.26c-3.71,4.23-6.25,6.7-6.25,6.7
					l-3.55-3.23l-7.91-7.21c0.56-0.62,1.1-1.23,1.65-1.83C605.84,545.87,611.92,543.36,617.36,540.33z"/>
				<path class="st32" d="M591.31,578.68c-0.85,2.05-1.29,3.55-1.46,4.65C589.89,582.04,590.26,580.43,591.31,578.68z"/>
				<path class="st32" d="M599.31,565.83c-0.5,0.59-0.83,1.03-1.51,1.93C598.15,567.16,598.55,566.73,599.31,565.83z"/>
				<path class="st32" d="M570.1,604.1l0-0.03c-0.3-2.59-2.48-4.85-5.15-6.14c-1.57-0.76-3.3-1.18-4.9-1.13
					c0.26-0.28,0.51-0.57,0.77-0.85c0.35-0.38,0.69-0.75,1.04-1.13c0.22-0.23,0.43-0.47,0.66-0.71c3.51-3.85,7.5-8.22,11.94-13.11
					l0.04,0.03c-0.55,0.6-1.09,1.21-1.65,1.83l7.91,7.21C577.08,595.69,573.45,600.33,570.1,604.1z"/>
				<g class="st16">
					<path class="st3" d="M554.25,606.95c-1.73,1.82-3.55,3.49-5.31,5.19c-0.43,0.42-0.9,0.88-1.27,1.28
						c-0.37,0.42-0.72,0.87-1.03,1.37c-0.33,0.52-0.58,0.91-0.68,1.49c-0.12,0.56-0.11,1.21-0.21,1.84
						c-0.21-0.6-0.47-1.17-0.57-1.85c-0.13-0.67,0.05-1.48,0.27-2.06c0.22-0.62,0.5-1.24,0.87-1.81c0.38-0.58,0.72-1.06,1.09-1.58
						c1.46-2.05,3.06-3.97,4.61-5.85L554.25,606.95z"/>
				</g>
				<path class="st32" d="M562.84,611.41c-1.41,1.27-2.71,2.34-3.86,3.24c0.7,2.37,0.19,5.07-1.61,7.03
					c-5.32,5.83-15.3-0.28-12.24-7.68c0.64-1.54,1.78-2.81,2.91-4.05c1.19-1.31,2.39-2.61,3.58-3.92c0.64-0.7,1.28-1.4,1.91-2.1
					c-0.17,2.33,0.42,4.65,1.82,5.98c0.51,0.48,1.08,0.85,1.69,1.1c0,0.01,0.01,0.01,0.02,0c0.25,0.08,0.51,0.13,0.77,0.19
					c0.96,0.19,2.07,0.34,3.21,0.34c0.7-0.06,1.41-0.19,2.07-0.38C563.03,611.24,562.93,611.33,562.84,611.41z"/>
			</g>
			<path class="st32" d="M609.81,559.09c-0.02,0.04-0.04,0.08-0.05,0.11c-1.46,2.72-2.99,5.39-4.64,7.99
				c-1.65,2.61-3.39,5.18-5.21,7.68c-1.62,2.24-3.32,4.45-5.06,6.61c-1.39,1.73-2.82,3.44-4.29,5.11c-0.1-0.08-0.18-0.16-0.25-0.25
				c0,0-0.01-0.01-0.02-0.04c-0.11-0.22-0.51-1.34-0.44-2.96c0.17-1.1,0.6-2.6,1.46-4.65c2.17-3.59,4.27-2.73,5.19-5.59
				c0.58-1.82,0.06-3.15,1.3-5.33c0.68-0.9,1.01-1.34,1.51-1.93c0.25-0.29,0.51-0.59,0.79-0.87c1.73-1.81,3.79-3.34,5.84-4.78
				c0.02-0.02,0.05-0.03,0.07-0.05c0.17-0.11,0.32-0.22,0.49-0.34c0.46-0.31,1.51-0.92,2.04-1.03c0.25-0.05,1.3-0.26,1.3,0.2
				C609.84,559.01,609.83,559.05,609.81,559.09z"/>
		</g>
	</g>
	<circle class="st32" cx="551.3" cy="616.97" r="1.41"/>
	<path class="st33" d="M568.84,607.01c-0.38,0.76-0.84,1.46-1.3,2.07c-0.18,0.23-0.37,0.47-0.58,0.7c-0.45,0.52-0.98,1.02-1.53,1.47
		c-0.96,0.63-1.99,1.12-2.9,1.49c-0.25,0.09-0.5,0.19-0.75,0.26c-0.01,0.01-0.01,0.02-0.02,0.01c-0.66,0.13-1.34,0.13-2.04,0.01
		c-1.73-0.32-3.35-1.68-4.48-3.46c-0.13-0.19-0.25-0.38-0.36-0.58c-0.24-0.43-0.45-0.88-0.63-1.35c-0.71-1.86-0.88-3.9-0.18-5.56
		c0.47-1.09,1.29-2,2.35-2.72c1.32-0.93,3.02-1.53,4.76-1.75c0.26-0.03,0.53-0.06,0.79-0.08c0.66-0.04,1.32-0.03,1.96,0.03
		c2,0.21,3.83,0.99,4.99,2.38l0.02,0.02C570.61,601.98,570.03,604.74,568.84,607.01z"/>
</g>
<g id="Layer_9" class="st0">
</g>
<g id="head">
	<path class="st27" d="M603.8,465.14v44.82c0,38.98-31.59,70.57-70.56,70.57h-64.48c-38.97,0-70.56-31.59-70.56-70.57v-44.14
		c27.79,6.99,63.07,11.17,101.47,11.17C539.3,476.99,575.61,472.54,603.8,465.14z"/>
	<path class="st34" d="M662.07,426.06c0,15.7-22.65,29.74-58.27,39.08c-28.19,7.4-64.5,11.85-104.13,11.85
		c-38.4,0-73.68-4.18-101.47-11.17c-37.14-9.33-60.93-23.67-60.93-39.76c0-15.81,22.97-29.94,59.01-39.28
		c-2.95,12.4-3.97,24.8-2.61,35.29c0,0,20.37,22.07,105,22.52v0.01h0.44c0.29,0,0.59,0,0.89-0.01c0.3,0.01,0.6,0.01,0.89,0.01h0.44
		v-0.01c84.63-0.45,105-22.52,105-22.52c1.36-10.44,0.35-22.77-2.57-35.1C639.4,396.31,662.07,410.35,662.07,426.06z"/>
	<path class="st34" d="M498.67,444.59c0.15,0.01,0.29,0.01,0.44,0.01h-0.44V444.59z"/>
	<path class="st34" d="M501.33,444.59v0.01h-0.44C501.04,444.6,501.18,444.6,501.33,444.59z"/>
	<path class="st34" d="M499.11,444.6h-0.44v-0.01C498.82,444.6,498.96,444.6,499.11,444.6z"/>
	<path class="st27" d="M606.33,422.07c0,0-20.37,22.07-105,22.52c-0.15,0.01-0.29,0.01-0.44,0.01c-0.29,0-0.59,0-0.89-0.01
		c-0.3,0.01-0.6,0.01-0.89,0.01c-0.15,0-0.29,0-0.44-0.01c-84.63-0.45-105-22.52-105-22.52c-1.36-10.49-0.34-22.89,2.61-35.29
		c7.25-30.48,26.14-60.92,49.92-62.85c19.35-1.56,27.21,19.19,53.8,20.17c26.59-0.98,34.45-21.73,53.8-20.17
		c23.83,1.93,42.75,32.5,49.96,63.04C606.68,399.3,607.69,411.63,606.33,422.07z"/>
	<path class="st34" d="M501.33,444.59v0.01h-0.44C501.04,444.6,501.18,444.6,501.33,444.59z"/>
	<path class="st34" d="M500,442.07"/>
	<path class="st27" d="M380.9,462.64c-0.75,23.69-1.9,24.49,1.63,35.65c2.2,6.96,7.44,12.76,13.7,16.53"/>
	<path class="st27" d="M619.1,462.64c0.75,23.69,1.9,24.49-1.63,35.65c-2.2,6.96-7.44,12.76-13.7,16.53"/>
	<g>
		<circle cx="561.8" cy="511.8" r="19.87"/>
		<circle class="st3" cx="567.93" cy="509.73" r="7.87"/>
		<circle class="st3" cx="553.57" cy="518.63" r="3.23"/>
	</g>
	<g>
		<circle cx="437.8" cy="511.8" r="19.87"/>
		<circle class="st3" cx="443.93" cy="509.73" r="7.87"/>
		<circle class="st3" cx="429.57" cy="518.63" r="3.23"/>
	</g>
	<path class="st35" d="M395.75,389.1c0,0,33.92,21.23,104.25,21.23s104.25-21.23,104.25-21.23"/>
	<path d="M519.7,551.41c-7.11-1.45-9.69,1.82-14.37-0.01c-0.18-0.07-4.42-1.8-5.58-5.66c-0.13-0.44-0.51-1.74-0.2-3.35
		c0.07-0.38,0.53-2.58,2.5-4.15c3.78-3.01,8.49-2.35,12.46-0.04c3.63,2.11,6.75,5.01,9.49,8.17c1.37,1.57,2.65,3.22,3.87,4.91
		c0.43,0.6,4.67,5.33,2.83,5.69c-0.48,0.09-0.94-0.23-1.33-0.53c-1.89-1.48-3.85-2.88-6.02-3.91
		C522.15,551.94,521.23,551.72,519.7,551.41z"/>
	<path d="M480.3,551.41c7.11-1.45,9.69,1.82,14.37-0.01c0.18-0.07,4.42-1.8,5.58-5.66c0.13-0.44,0.51-1.74,0.2-3.35
		c-0.07-0.38-0.53-2.58-2.5-4.15c-3.78-3.01-8.49-2.35-12.46-0.04c-3.63,2.11-6.75,5.01-9.49,8.17c-1.37,1.57-2.65,3.22-3.87,4.91
		c-0.43,0.6-4.67,5.33-2.83,5.69c0.48,0.09,0.94-0.23,1.33-0.53c1.89-1.48,3.85-2.88,6.02-3.91
		C477.85,551.94,478.77,551.72,480.3,551.41z"/>
</g>
</svg>
