<svg id="Layer_1" data-name="Layer 1" xmlns="http://www.w3.org/2000/svg" viewBox="0 0 383.19 694.64"><defs><style>.cls-1{fill:#918080;}</style></defs><path d="M487.93,470.24c-3.27,7-7.85,9.93-13.41,8.62-5-1.18-7.82-4.46-9-9.4-16.11-69-59.86-110.64-127.43-128.57-12.92-3.43-26.18-4.88-39.52-5.68-2.6-.15-3,.55-3,2.91.08,18.58,0,37.16.08,55.73,0,5.16-1.42,9.45-6.18,11.85s-9,1.1-13.23-1.91q-82.5-59-165.07-117.94c-8.59-6.14-8.54-14.47.08-20.63q82.23-58.73,164.45-117.47c3.22-2.3,6.46-4.29,10.64-3.44,5.7,1.16,9.25,5.63,9.26,11.87,0,18.7.12,37.4-.07,56.11,0,3.7.87,4.74,4.71,5.29C368.92,227.36,421.7,261,455.69,322.27c14.71,26.5,23,55.22,27.73,85,1.86,11.7,3.07,23.47,3.77,35.3,0,.59-.1,1.27.74,1.45v3c-.52.49-.34,1.14-.38,1.74v4.72c0,.61-.16,1.27.38,1.77v5.24a7.73,7.73,0,0,0,0,5.24Z" transform="translate(-104.75 -144.11)"/><path class="cls-1" d="M397.93,838.75a4.34,4.34,0,0,1,0-5.24Z" transform="translate(-104.75 -144.11)"/><path class="cls-1" d="M397.31,826.75l0-2.24c.23-.31.45-.31.65,0v2.25C397.71,827.13,397.5,827.1,397.31,826.75Z" transform="translate(-104.75 -144.11)"/><path class="cls-1" d="M397.31,821.52c-.1-.62-.33-1.3.62-1.48v1.5C397.71,821.88,397.5,821.87,397.31,821.52Z" transform="translate(-104.75 -144.11)"/><path class="cls-1" d="M397.31,821.52a3.19,3.19,0,0,1,.62,0V823c-.22.34-.43.33-.62,0Z" transform="translate(-104.75 -144.11)"/><path class="cls-1" d="M397.31,823l.62,0v1.49c-.21,0-.43,0-.65,0Z" transform="translate(-104.75 -144.11)"/><path class="cls-1" d="M397.31,826.75c.21,0,.42,0,.62,0v1.49C397.22,828,397.19,827.39,397.31,826.75Z" transform="translate(-104.75 -144.11)"/></svg>