<svg id="Layer_1" data-name="Layer 1" xmlns="http://www.w3.org/2000/svg" viewBox="0 0 384 384"><defs><style>.cls-1{fill:#ef0f0f;}</style></defs><path class="cls-1" d="M312.75,588h-13.5c-5.81-.59-11.65-1-17.44-1.81-35.41-4.78-67.42-17.83-95.2-40.4-41-33.34-65-76.29-71-129-.51-4.44-1-8.88-1.57-13.32v-15c.29-1.71.63-3.41.86-5.12,1.2-8.88,1.8-17.89,3.65-26.63,9.84-46.59,33.94-84.37,71.64-113.32a185.44,185.44,0,0,1,94.64-37.83c4.82-.52,9.64-1.07,14.46-1.6h13.5c5.82.59,11.65,1,17.44,1.79,29,3.87,56.05,13.29,80.35,29.66,49.73,33.52,78.65,80,85.88,139.73.57,4.69,1.05,9.38,1.58,14.07v13.5c-.29,1.83-.62,3.66-.85,5.5-1.13,8.76-1.64,17.66-3.44,26.28-9.08,43.42-30.64,79.6-64.54,108.18a186.22,186.22,0,0,1-102,43.68ZM261.1,396.3a47.77,47.77,0,0,0-4.1,3.23c-14.26,14.21-28.54,28.39-42.68,42.71-11.65,11.81-13.2,28.87-4,41.74,11.73,16.46,34.58,18.31,49.39,3.78,14.45-14.18,28.66-28.61,43-42.92,1-1,2.12-2,4.11-3.91a23.18,23.18,0,0,0,2.42,3.73c14.28,14.35,28.52,28.75,43,42.94,15.92,15.64,40.87,12.33,51.42-6.63,7.07-12.72,4.82-27.91-6-38.88q-21.22-21.46-42.7-42.68a23.54,23.54,0,0,0-4-2.59c2-2.09,3-3.17,4-4.21,14.23-14.24,28.51-28.41,42.67-42.72,10.82-10.94,13.1-26.22,6-38.88-10.59-19-35.48-22.28-51.42-6.63-14.45,14.19-28.66,28.61-43,42.92-1,1-2.1,2-3.68,3.45-1.39-1.68-2.4-3.14-3.63-4.37q-20.79-20.85-41.63-41.64C250.86,295.37,239.68,292,227,296c-23.48,7.36-30.15,35.83-12.66,53.79C225.74,361.49,237.44,373,249,384.51,252.74,388.2,256.52,391.83,261.1,396.3Z" transform="translate(-114 -204)"/></svg>