<svg id="Layer_1" data-name="Layer 1" xmlns="http://www.w3.org/2000/svg" viewBox="0 0 469.62 181.97"><defs><style>.cls-1{fill:#df1a58;}.cls-2{fill:#b21e4c;}.cls-3{fill:#ed3b7d;}.cls-4{fill:#ed397d;}</style></defs><text x="-155.68" y="-222.25"/><path class="cls-1" d="M436.26,304.57a.23.23,0,0,0,0,.14c0,7.07-.05,14.15.07,21.22,0,2.15-.49,3.27-2.73,4C392.19,343.76,350,352.64,306.1,350.82c-27.38-1.14-54.09-6.23-80.38-13.68-7.77-2.21-15.42-4.86-23.17-7.12-2.27-.66-3.2-1.61-3.13-4.09.18-7.07.08-14.15.09-21.23a.22.22,0,0,0,0-.13,5.73,5.73,0,0,1-.83-2.75c.05-11-.37-22.06.21-33.07a3,3,0,0,1,.62-1.05.29.29,0,0,1,.15-.09c1.65-.55,3.1.29,4.58.77a185.61,185.61,0,0,0,18.2,5.44,3.6,3.6,0,0,1,1.76,1.39.29.29,0,0,0,.15.09c31.82,9.26,64.16,15.23,97.44,14.7,30.57-.49,60.36-6,89.6-14.72l.12-.07c.84-.84,2-1,3-1.54l0,0c5.68-2,11.49-3.61,17.18-5.56a5.19,5.19,0,0,1,3.93,0l.08.05c1.43,1,1.39,2.52,1.39,4,.06,9.54,0,19.08,0,28.62A7.51,7.51,0,0,1,436.26,304.57Z" transform="translate(-155.68 -222.25)"/><path class="cls-2" d="M200.32,267.79l-.59,0c-.89,1.09-.45,2.38-.45,3.57,0,9.76,0,19.51-.08,29.26,0,1.08,1,2.86-1.2,3.22-14.84-3.86-28.42-10.48-41.21-18.86-2-1.29-.9-2,.12-3,5.73-5.56,11.34-11.23,17.2-16.64,1.89-1.75,2-3.23,1.33-5.5-3.41-12.21-6.64-24.47-10-37.14a.29.29,0,0,1,.42-.34c12.62,6.59,25.16,12.08,38.41,15.81q8.25,2.33,16.63,4.2c2.46.55,3.47,1.45,3.42,4.18-.19,9.6-.07,19.2-.06,28.8l-1.25-.62a.32.32,0,0,1-.17-.26c-.49-9,0-18-.25-27.21A.3.3,0,0,0,222,247C215.14,254.46,207.68,261.08,200.32,267.79Z" transform="translate(-155.68 -222.25)"/><path class="cls-2" d="M412.16,243.38a.31.31,0,0,1,.22-.22c9.44-2.46,19-4.59,28.17-7.87a232.93,232.93,0,0,0,29.32-13,.3.3,0,0,1,.43.35c-3.37,12.61-6.51,24.76-9.95,36.83-.76,2.67-.38,4.23,1.62,6.08,5.75,5.33,11.27,10.91,16.92,16.35,1.12,1.09,1.88,1.83,0,3.05-12.78,8.37-26.34,15-41.18,18.81-2.21-.4-1.18-2.16-1.19-3.25-.09-10.34-.06-20.69,0-31-.29-2.11-1.87-3.1-3.53-4l-.05,0a209.35,209.35,0,0,1-20.47-20.26A3.14,3.14,0,0,1,412.16,243.38Z" transform="translate(-155.68 -222.25)"/><path class="cls-1" d="M436.69,267.67a.32.32,0,0,1,.12.25c0,10.58,0,21.15.05,31.73,0,1.41-.56,3,.86,4.15l-1.5.83c0-10.87-.06-21.74-.16-32.62,0-1.3.79-3.16-1.55-3.51-.13-.67.25-1,.8-1.19A1.86,1.86,0,0,1,436.69,267.67Z" transform="translate(-155.68 -222.25)"/><path class="cls-1" d="M198.36,304a.29.29,0,0,1-.06-.46c1-1,.57-2.35.57-3.55,0-9.47,0-18.94,0-28.42,0-1.28-.58-2.78.81-3.81q-.1,18.45-.22,36.88Z" transform="translate(-155.68 -222.25)"/><path class="cls-3" d="M412.21,243.21l.66,1.29a.35.35,0,0,1,0,.11c.74,7.77.26,15.57.35,23.35a16.74,16.74,0,0,0,1.07,6.37.31.31,0,0,1,0,.31c-.7.81-1.65.59-2.55.6a.3.3,0,0,1-.31-.3c0-9.33,0-18.66.05-28C411.48,245.71,410.74,244.2,412.21,243.21Z" transform="translate(-155.68 -222.25)"/><path class="cls-4" d="M200.57,267.89a.32.32,0,0,1-.18-.37c.82-2.71,3.17-4.24,5.12-5.88,5.83-4.89,10.93-10.49,16.39-15.74a16.58,16.58,0,0,1,1.54-1.14c0,9.92,0,19.42,0,28.92,0,.3-.4.59-.61.9C215.05,273.5,207.79,270.75,200.57,267.89Z" transform="translate(-155.68 -222.25)"/><path class="cls-4" d="M413.51,274.45c-.79-.12-1.35-.51-1.35-1.72,0-9.09.07-18.19.13-27.29,0-.3.39-.59.6-.89,6.39,7.07,13.17,13.75,20.17,20.22.87.87,2.5,1.16,2.28,2.86a.35.35,0,0,1-.1.19l-.14.12Z" transform="translate(-155.68 -222.25)"/><path class="cls-3" d="M435.47,267.75a.35.35,0,0,1-.24-.12c-.72-1-1.44-1.91-2.17-2.86,1.92.17,2.84,1.58,3.75,3Z" transform="translate(-155.68 -222.25)"/><text x="-155.68" y="-222.25"/><text x="-155.68" y="-222.25"/></svg>