<svg xmlns="http://www.w3.org/2000/svg" width="20.631" height="12.485" viewBox="0 0 20.631 12.485">
  <g id="hand-holding-up-a-gun" transform="translate(0 0)">
    <path id="Path_259" data-name="Path 259" d="M164.188-410.819a.281.281,0,0,1,.028.145v.113h11.69l.1.1.1.1v1.241a4.635,4.635,0,0,1-.06,1.318.517.517,0,0,0-.06.25c0,.169-.008.177-.193.258a4.894,4.894,0,0,1-1.547.427,14.222,14.222,0,0,1-2.172.036c-.173-.024-.189-.04-.234-.185-.064-.21-.185-.218-.226-.012-.024.129-.036.141-.125.121a3.126,3.126,0,0,0-.5-.028h-.395l.032-.117.036-.121h-1.721l-.048.2a3.088,3.088,0,0,0,.02,1.169,2.652,2.652,0,0,0,.878,1.346c.431.431.512.532.492.6a3.287,3.287,0,0,0-.048.476l-.02.387-.149-.052a3.776,3.776,0,0,1-1.31-.85,3.655,3.655,0,0,1-1.007-3.07l.028-.21h-2.559c-1.717,0-2.6-.016-2.684-.044-.169-.056-.21-.2-.21-.745,0-.415-.008-.459-.081-.5-.177-.093-.242-.322-.242-.846s.044-.7.21-.83a.582.582,0,0,0,.149-.21.4.4,0,0,1,.129-.169,1.783,1.783,0,0,1,.475-.04h.4l.012-.133.012-.129.383-.012A1.814,1.814,0,0,1,164.188-410.819Z" transform="translate(-162 410.836)" fill="#e01357"/>
    <path id="Path_260" data-name="Path 260" d="M7.459-334.77a7.445,7.445,0,0,1,1.725,1.213c.455.371.915.733,1.024.806a3.215,3.215,0,0,0,1.805.347h.677v5.214l-.657.024a6.707,6.707,0,0,0-2.784.689,13,13,0,0,1-1.769.665,9.543,9.543,0,0,1-2.792.407,2.327,2.327,0,0,1-1.918-.608,2.238,2.238,0,0,1-.54-.947c-.016-.1-.077-.165-.242-.278a1.577,1.577,0,0,1-.572-.693,1.159,1.159,0,0,1-.109-.641v-.411l-.141-.153a1.5,1.5,0,0,1-.387-.705,1.723,1.723,0,0,1,.044-.935l.056-.165-.254-.266a2.789,2.789,0,0,1-.588-.9A1.416,1.416,0,0,1,0-332.578a.922.922,0,0,1,.814-.955,1.531,1.531,0,0,1,.705-.016l.79.093c.2.02.725.032,1.169.02a6.022,6.022,0,0,0,2.6-.512c.258-.133.318-.222.318-.463a.257.257,0,0,1,.129-.238A1.022,1.022,0,0,1,7.459-334.77Z" transform="translate(7.942 337.891)" fill="#e01357"/>
  </g>
</svg>
